<svg width="61" height="86" viewBox="0 0 61 86" fill="none" xmlns="http://www.w3.org/2000/svg">
<g clip-path="url(#clip0_140_7467)">
<path d="M48.7464 10.5497L48.7466 10.55C51.4268 14.3898 53.2211 19.377 54.0558 25.4511H44.0343C42.9995 18.7294 40.5671 15.106 37.846 13.1995C35.0525 11.2421 32.148 11.2423 30.769 11.2424H30.745H30.6511L30.6497 11.2423L30.644 11.2424L30.6178 11.2425C29.2203 11.2503 26.2786 11.2668 23.4738 13.2268C20.7378 15.1386 18.3165 18.7588 17.3577 25.4511H7.08256C8.73507 13.8472 13.7841 6.31882 21.6052 3.21176L21.6054 3.2117C24.2455 2.16244 27.4865 1.57471 30.7197 1.57471C31.2908 1.57471 31.8662 1.59373 32.4293 1.63041L32.4294 1.63042C39.4797 2.08855 44.9375 5.08887 48.7464 10.5497Z" fill="white" stroke="black" stroke-width="2"/>
<path d="M59.453 67.6193C59.1236 72.3693 57.1758 76.9258 54.3124 79.8093L54.3122 79.8094C51.5708 82.5714 48.401 84.365 44.1993 84.6793L44.1991 84.6793L44.198 84.6794C44.1965 84.6794 44.1936 84.6796 44.189 84.6799L44.159 84.6812C44.1332 84.6822 44.0995 84.6832 44.0571 84.6841C43.9723 84.6861 43.8603 84.6877 43.7215 84.689C43.4442 84.6916 43.0686 84.6926 42.6071 84.6916C41.6845 84.6897 40.4257 84.6802 38.9359 84.6609C35.9564 84.6223 32.059 84.5446 28.0885 84.4109C24.1155 84.2771 20.0801 84.0876 16.8203 83.8262C15.1893 83.6954 13.7656 83.5476 12.647 83.3819C11.4838 83.2096 10.7749 83.034 10.4807 82.8939C5.29616 80.4234 2.2469 74.3169 1.70257 67.4711L0.70572 67.5503L1.70257 67.471C1.49913 64.913 1.56332 58.4283 1.64939 51.8845C1.65792 51.2362 1.66666 50.5875 1.67535 49.9423C1.75358 44.1344 1.82791 38.6167 1.70855 36.346L1.70604 36.2984L1.69902 36.2513C1.60973 35.6515 1.84678 35.2372 2.00722 35.0309C2.12728 34.8774 2.29997 34.7107 2.5448 34.5854L2.75877 34.4759L2.89959 34.2811C2.95407 34.2057 3.01607 34.1342 3.08623 34.0654L3.38633 33.7713V33.3512V32.5178C3.38633 31.7446 4.0424 31.0641 4.91915 31.0641H21.1225C21.6082 31.0641 22.0549 31.2801 22.3417 31.6352C22.6255 31.9897 22.7205 32.4419 22.6104 32.8655L22.6102 32.866C22.5234 33.2008 22.4139 33.7045 22.3902 34.22C22.369 34.6815 22.4006 35.4104 22.8507 35.9703L22.8508 35.9705C23.308 36.5388 24.0491 36.8455 24.6955 37.0341C25.3864 37.2358 26.1881 37.3621 26.9737 37.4439C28.5415 37.6072 30.1922 37.6072 31.071 37.6072H31.0828H31.0971C32.0488 37.6072 33.6897 37.6072 35.2405 37.4353C36.0188 37.349 36.8109 37.2157 37.5004 37.003C38.1583 36.8 38.8759 36.4798 39.3419 35.92L38.5733 35.2803L39.3419 35.92C39.7745 35.4003 39.8699 34.7469 39.8784 34.2577C39.8873 33.743 39.8023 33.2267 39.7119 32.8217L39.7113 32.8193C39.6168 32.4007 39.7214 31.9602 40.0066 31.6173C40.2928 31.2731 40.7344 31.0641 41.2099 31.0641L41.2107 31.0641L41.2099 30.0641C41.2107 31.0641 41.2107 31.0641 41.2109 31.0641L41.2114 31.0641L41.2134 31.0641L41.2216 31.0641L41.2539 31.0641L41.38 31.064L41.8589 31.0636L43.5702 31.0626C44.9876 31.0619 46.88 31.0613 48.7803 31.0616C50.6807 31.062 52.5884 31.0633 54.0366 31.0665C54.7609 31.0681 55.3691 31.0701 55.8037 31.0727C56.0213 31.074 56.1935 31.0755 56.3144 31.077C56.4096 31.0783 56.4483 31.0796 56.4539 31.0793C57.2308 31.1847 57.7686 31.8175 57.7686 32.5178V33.1298V33.6192L58.155 33.9194C58.2821 34.0182 58.3982 34.0899 58.4929 34.144C58.5342 34.1677 58.5738 34.1893 58.6029 34.2051L58.6102 34.2091C58.6213 34.2152 58.6307 34.2203 58.6389 34.2248L58.693 34.3254L58.8384 34.4481C59.0039 34.5878 59.1706 34.7722 59.296 35.0148L59.2981 35.0189C59.4127 35.2379 59.4658 35.4802 59.4545 35.7279C59.3472 37.9372 59.4106 43.7108 59.4772 49.7842C59.4839 50.3953 59.4907 51.0093 59.4973 51.6231C59.5701 58.3934 59.6261 65.1198 59.453 67.6193ZM59.453 67.6193L60.4506 67.6885M59.453 67.6193L60.4506 67.6885M60.4506 67.6885C60.6431 64.9078 60.5575 57.0992 60.4774 49.7949C60.4106 43.6975 60.3475 37.9515 60.4534 35.7752M60.4506 67.6885C60.1072 72.641 58.079 77.4355 55.0219 80.5139C52.1457 83.4118 48.7607 85.3409 44.2739 85.6765C43.0713 85.7667 13.6333 85.503 10.0507 83.7967L60.4534 35.7752M60.4534 35.7752C60.473 35.3522 60.3819 34.9334 60.1843 34.5554C59.9867 34.1733 59.7273 33.8899 59.4835 33.684C59.3787 33.4892 59.2458 33.4167 59.0826 33.3277C58.9882 33.2762 58.8837 33.2192 58.7686 33.1298L60.4534 35.7752ZM56.4246 31.0756C56.4266 31.0758 56.4287 31.0761 56.4307 31.0763C56.4274 31.0759 56.4238 31.0755 56.42 31.075L56.4246 31.0756ZM36.4133 68.3233H37.6868L37.3848 67.0862L35.9704 61.2912C37.4174 60.0383 38.3398 58.2071 38.3398 56.1577C38.3398 52.3339 35.1485 49.2872 31.2818 49.2872C27.4148 49.2872 24.2252 52.3342 24.2252 56.1577C24.2252 58.207 25.1475 60.0381 26.5934 61.291L25.1802 67.0864L24.8785 68.3233H26.1517H36.4133Z" fill="white" stroke="black" stroke-width="2"/>
</g>
<defs>
<clipPath id="clip0_140_7467">
<rect width="60" height="85.1171" fill="white" transform="translate(0.566406 0.574951)"/>
</clipPath>
</defs>
</svg>
