<svg width="35" height="54" viewBox="0 0 35 54" fill="none" xmlns="http://www.w3.org/2000/svg">
<path d="M34.0512 29.4881C34.0604 29.2899 34.0177 29.0938 33.9251 28.9167C33.8326 28.7377 33.7111 28.605 33.5968 28.5085C33.5194 28.3645 33.4091 28.3632 33.262 28.249V27.9623C33.262 27.381 32.8142 26.8916 32.2187 26.8216C32.0999 26.807 25.0373 26.813 25.0373 26.813C24.6788 26.813 24.3387 26.9702 24.1135 27.241C23.8883 27.5118 23.8017 27.8665 23.8785 28.2067C23.9553 28.5508 24.0052 29.0125 23.8023 29.2563C23.285 29.8778 21.1886 29.8778 20.2937 29.8778C19.4691 29.8778 17.2788 29.8778 16.8028 29.286C16.6084 29.0442 16.7043 28.529 16.7785 28.243C16.8678 27.8995 16.789 27.5356 16.5645 27.2555C16.3393 26.9761 15.9946 26.813 15.6282 26.813H8.03841C7.38316 26.813 6.85201 27.3275 6.85201 27.9623V28.3527C6.80146 28.4022 6.75484 28.4557 6.71282 28.5138C6.5257 28.6096 6.39439 28.7371 6.3051 28.8514C6.18167 29.0099 5.9998 29.3302 6.06677 29.78C6.18889 32.1031 5.8698 41.9198 6.0648 44.3717C6.32676 47.6664 7.8027 50.724 10.4421 51.9816C12.1202 52.7808 25.9092 52.9044 26.4726 52.8621C28.5742 52.7049 30.1598 51.8013 31.507 50.4439C32.939 49.002 33.889 46.7562 34.0499 44.4364C34.2153 42.0467 33.9422 31.7286 34.0512 29.4881ZM22.7906 44.2654H17.9839L18.7173 41.258C18.0102 40.758 17.5499 39.9488 17.5499 39.0353C17.5499 37.5168 18.8204 36.2856 20.3869 36.2856C21.9535 36.2856 23.2246 37.5168 23.2246 39.0353C23.2246 39.9488 22.7643 40.758 22.0566 41.258L22.7906 44.2654Z" fill="white" stroke="black" stroke-width="1.5"/>
<path d="M12.5651 11.7042L12.6005 11.6782C13.6219 10.9292 16.59 8.75262 21.2283 13.6044L25.77 10.2739C23.6222 7.95901 21.3768 6.39149 19.0827 5.60915C15.9884 4.55275 12.948 4.95657 10.0454 6.80832C9.81408 6.95584 9.58306 7.11379 9.35911 7.27802C8.09584 8.20442 6.99153 9.36646 6.24987 10.5501C3.9656 14.1943 4.28816 18.7953 7.1677 23.9155L11.811 20.5104C8.52959 14.698 11.5322 12.4707 12.5645 11.7046L12.5651 11.7042Z" fill="white" stroke="black" stroke-width="1.5"/>
</svg>
