<svg width="595" height="181" viewBox="0 0 595 181" fill="none" xmlns="http://www.w3.org/2000/svg">
<path fill-rule="evenodd" clip-rule="evenodd" d="M50.9912 56.908H7L0 122L7 132.092H53.9905C61.0158 132.092 67.0319 130.523 71.1574 126.563C72.12 125.638 72.9492 124.614 73.6552 123.5L79.98 132.092H143.468V110.655H105.976V104.738H135.469V83.3017H105.976V78.3448H161.439L154.5 122L161.439 132.092H187.435V78.3448H237.663L208.38 112.078L189.5 122L192.023 132.092H232.118L189.5 174L203.185 180.926L276.46 112.637L269.5 122L276.46 132.092H302.456V105.456L310.155 118.655H328.747L336.447 105.456L329.5 122L336.447 132.092H389.747L394.246 120.095H413.697L410 122L418.196 132.092H471.454V111.937H479.127L482 122L490.625 132.092H519.459L505.813 109.035C508.372 107.675 510.491 105.76 512.041 103.236C514.46 99.4031 515.444 94.4279 515.444 88.7413V80.1034C515.444 72.8775 513.739 66.7144 509.416 62.6294C505.195 58.5135 498.878 56.908 491.448 56.908H445.458V121.5L441.862 120.735L416.692 56.908H391.252L362.443 121.5V56.908L347.5 52L337.109 56.908L319.451 88.2669L301.794 56.908L288.5 52L280.46 56.908L266.5 52L247.151 56.908L281.093 13.4626L266 0.5L225.5 43L216.62 50L209.5 66L208.43 56.908L193 52L144 56.908L128.5 52L79.98 56.908L76.1206 102.799C76.0165 102.417 75.9024 102.042 75.7782 101.672C74.3442 97.5896 72.0332 94.2864 68.9286 91.9715C69.5261 91.3458 70.0884 90.672 70.6152 89.9523L70.6302 89.9318L70.6449 89.9112C72.9826 86.6312 73.987 82.6175 73.987 78.1839C73.987 71.7094 72.2755 66.1314 68.1098 62.2957C63.984 58.432 57.988 56.908 50.9912 56.908ZM74.5058 122C74.2449 122.516 73.9617 123.017 73.6552 123.5L74.5058 122ZM74.5058 122C76.2413 118.566 76.9863 114.428 76.9863 109.856C76.9863 107.344 76.7156 104.978 76.1206 102.799L74.5058 122ZM241.941 110.655L276.46 68.9683V110.655L257.5 108L241.941 110.655ZM48.9916 105.218C49.6838 105.218 50.1309 105.303 50.3969 105.388C50.6455 105.468 50.7169 105.54 50.7205 105.544C50.7205 105.544 50.7729 105.586 50.8367 105.77C50.9077 105.974 50.9903 106.353 50.9903 106.977V108.897C50.9903 109.52 50.9077 109.899 50.8367 110.104C50.7729 110.287 50.7202 110.33 50.7202 110.33C50.7142 110.336 50.641 110.407 50.3969 110.486C50.1309 110.571 49.6838 110.655 48.9916 110.655H32.996V105.218H48.9916ZM45.9923 78.3448C46.6844 78.3448 47.1316 78.4293 47.3976 78.5144C47.6417 78.5925 47.7152 78.6642 47.7212 78.67C47.7212 78.67 47.7736 78.7126 47.8373 78.8961C47.9084 79.1007 47.9909 79.4795 47.9909 80.1034V82.0229C47.9909 82.6469 47.9084 83.0257 47.8373 83.2303C47.7736 83.4138 47.7212 83.4563 47.7212 83.4563C47.7152 83.4622 47.6417 83.5339 47.3976 83.612C47.1316 83.6971 46.6844 83.7816 45.9923 83.7816H32.996V78.3448H45.9923ZM403.972 93.0313L406.307 99.6178H401.636L403.972 93.0313ZM487.449 78.3448C488.142 78.3448 488.589 78.4293 488.855 78.5144C489.103 78.5939 489.175 78.6665 489.178 78.67C489.178 78.67 489.231 78.7126 489.294 78.8961C489.365 79.1007 489.448 79.4795 489.448 80.1034V88.7413C489.448 89.3653 489.365 89.7441 489.294 89.9487C489.231 90.1322 489.178 90.1747 489.178 90.1747C489.172 90.1807 489.099 90.2523 488.855 90.3304C488.589 90.4155 488.142 90.5 487.449 90.5H471.454V78.3448H487.449Z" fill="#181F26"/>
<path d="M521.414 132.092H547.41V104.738H550.076L557 122L565.573 132.092H593.797L572.032 94.054L594.015 56.908L576 52L565.722 56.908L550.125 83.3017H547.41V56.908L532.5 52L521.414 56.908L514.5 122L521.414 132.092Z" fill="#181F26"/>
<path d="M0 52H40C46.5333 52 51.3333 53.5 54.4 56.5C57.4667 59.4333 59 63.9333 59 70C59 74 58.1333 77.2667 56.4 79.8C54.6667 82.2667 52.5333 84 50 85C55.4 86.4667 59.0667 90.0667 61 95.8C61.6667 97.8667 62 100.267 62 103C62 109.533 60.4667 114.333 57.4 117.4C54.3333 120.467 49.5333 122 43 122H0V52ZM44 100C44 96 42 94 38 94H18V108H38C42 108 44 106 44 102V100ZM41 72C41 68 39 66 35 66H18V80H35C39 80 41 78 41 74V72Z" fill="#FFE500"/>
<path d="M128.496 122H72.9961V52H128.496V66H90.9961V79.5H120.496V93.5H90.9961V108H128.496V122Z" fill="#FFE500"/>
<path d="M172.473 122H154.473V66H133.473V52H193.473V66H172.473V122Z" fill="#FFE500"/>
<path d="M329.52 83L315.52 108H301.52L287.52 83V122H269.52V52H288.52L308.52 89L328.52 52H347.52V122H329.52V83Z" fill="#FFE500"/>
<path d="M376.059 122H356.559L383.059 52H403.059L429.559 122H410.059L405.559 109.5H380.559L376.059 122ZM385.059 96.5H401.059L393.059 73L385.059 96.5Z" fill="#FFE500"/>
<path d="M438.555 52H480.555C487.555 52 492.621 53.6 495.755 56.8C498.955 59.9333 500.555 65 500.555 72V81C500.555 86.5333 499.621 90.8333 497.755 93.9C495.955 96.9667 493.055 99 489.055 100L501.555 122H482.055L470.555 101H456.555V122H438.555V52ZM482.555 72C482.555 68 480.555 66 476.555 66H456.555V87H476.555C480.555 87 482.555 85 482.555 81V72Z" fill="#FFE500"/>
<path d="M532.527 122H514.527V52H532.527V79.5H541.527L557.127 52H576.127L556.527 86.5L576.027 122H557.027L541.527 93.5H532.527V122Z" fill="#FFE500"/>
<path d="M227.957 124H240.941L189.5 174L227.957 124Z" fill="#FFE500"/>
<path d="M229.5 50H216.613L267 0L229.5 50Z" fill="#FFE500"/>
<path d="M267 52L222.484 108H257.484L243 122H229.5H189.5L200.484 108L235.484 66H200.484L214.5 52H228H257.484H267Z" fill="#FFE500"/>
</svg>
