<svg width="92" height="92" viewBox="0 0 92 92" fill="none" xmlns="http://www.w3.org/2000/svg">
<g id="lucky icon 1" clip-path="url(#clip0_537_1152)">
<g id="Group">
<g id="Group_2">
<g id="Group_3">
<g id="Group_4">
<g id="Group_5">
<g id="Group_6">
<path id="Vector" d="M50.876 53.9119C56.12 45.0799 54.832 28.6119 59.156 20.9759C60.536 18.5839 71.944 25.8519 74.244 30.4519C74.888 31.7399 73.784 35.6039 70.288 33.5799C68.908 41.8599 65.136 50.3239 57.96 56.5799" fill="white"/>
</g>
</g>
</g>
<path id="Vector_2" d="M75.716 34.684C73.968 34.868 72.036 34.5 70.38 33.58C69 41.86 65.228 50.324 58.052 56.58L50.968 53.912C52.716 51.06 53.728 47.38 54.464 43.424C55.568 42.872 56.764 41.308 57.684 37.72C59.156 31.556 59.34 26.312 61.548 24.288C63.112 22.816 71.576 30.728 75.716 34.684Z" fill="#CFE1FF"/>
<g id="Group_7">
<g id="Group_8">
<g id="Group_9">
<path id="Vector_3" d="M58.052 57.2241C57.868 57.2241 57.684 57.1321 57.592 57.0401C57.408 56.7641 57.408 56.396 57.684 56.2121C65.78 49.1281 68.724 40.0201 69.828 33.4881C69.828 33.3041 70.012 33.1201 70.196 33.0281C70.38 32.9361 70.564 32.9361 70.748 33.0281C71.852 33.6721 72.68 33.764 73.324 33.212C74.06 32.568 74.152 31.1881 73.968 30.7281C71.944 26.9561 63.388 21.2521 60.352 21.1601C60.168 21.1601 59.892 21.1601 59.8 21.3441C57.776 24.8401 57.04 30.36 56.212 36.156C55.2 42.688 54.28 49.4961 51.428 54.2801C51.244 54.5561 50.876 54.6481 50.6 54.4641C50.324 54.2801 50.232 53.9121 50.416 53.6361C53.084 49.1281 54.096 42.412 55.016 35.972C55.844 29.992 56.672 24.3801 58.788 20.7001C58.972 20.3321 59.432 19.8721 60.444 19.9641C63.848 20.0561 72.864 26.0361 74.98 30.2681C75.44 31.2801 75.256 33.12 74.152 34.132C73.692 34.592 72.588 35.2361 70.932 34.5001C69.736 41.1241 66.516 50.1401 58.512 57.132C58.328 57.132 58.144 57.2241 58.052 57.2241Z" fill="black"/>
</g>
</g>
</g>
<g id="Group_10">
<g id="Group_11">
<g id="Group_12">
<path id="Vector_4" d="M68.632 28.336C68.172 31.556 67.712 34.5 67.068 37.168C66.148 41.032 64.768 44.252 62.744 47.288C61.364 49.312 59.524 51.244 57.316 53.084L54.74 52.164C60.26 42.228 58.88 26.864 63.664 24.104C68.908 20.976 69.92 18.676 68.632 28.336Z" fill="#FF8080"/>
</g>
</g>
</g>
<g id="Group_13">
<g id="Group_14">
<g id="Group_15">
<path id="Vector_5" d="M68.632 28.336C68.172 31.556 67.712 34.5 67.068 37.168C64.952 36.156 63.664 34.592 62.192 33.12C62.192 33.12 62.284 38.088 60.904 41.86C60.076 44.068 60.168 47.472 62.744 47.288C61.364 49.312 59.524 51.244 57.316 53.084L54.74 52.164C60.26 42.228 58.88 26.864 63.664 24.104C68.908 20.976 69.92 18.676 68.632 28.336Z" fill="#FF5C64"/>
</g>
</g>
</g>
<g id="Group_16">
<g id="Group_17">
<g id="Group_18">
<path id="Vector_6" d="M57.3161 53.728L53.8201 52.44L54.1881 51.796C56.7641 47.104 57.8681 41.124 58.7881 35.88C59.8001 30.084 60.6281 25.116 63.3881 23.552C64.2161 23.092 64.9521 22.632 65.5961 22.172C67.3441 21.068 68.2641 20.424 69.0921 20.976C70.0121 21.528 69.9201 23.276 69.2761 28.428C68.6321 33.212 67.7121 38.364 65.8721 42.78C64.0321 47.104 61.4561 50.508 57.6841 53.544L57.3161 53.728ZM55.4761 51.796L57.0401 52.348C64.2161 46.46 66.4241 39.56 67.8961 28.244C68.1721 26.404 68.6321 22.54 68.2641 21.988C67.8961 21.988 66.9761 22.632 66.0561 23.184C65.4121 23.552 64.6761 24.104 63.8481 24.564C61.5481 25.852 60.7201 30.636 59.8001 36.064C58.9721 41.216 57.9601 47.012 55.4761 51.796Z" fill="black"/>
</g>
</g>
</g>
<g id="Group_19">
<g id="Group_20">
<g id="Group_21">
<path id="Vector_7" d="M61.4561 24.288C63.7561 30.176 69.0001 32.844 70.3801 33.58C74.0601 35.42 78.8441 34.684 79.7641 32.66C80.5921 30.82 77.8321 30.544 76.9121 27.14C75.7161 22.908 74.7961 17.48 69.0001 17.94C64.8601 15.916 61.3641 18.032 60.0761 19.688C60.0761 19.688 59.1561 20.7 58.3281 22.724" fill="white"/>
</g>
</g>
</g>
<path id="Vector_8" d="M79.6721 31.096C78.2001 32.752 73.784 33.396 70.564 31.556C63.204 27.416 62.8361 24.748 62.4681 24.38C62.0081 24.012 61.4561 24.38 61.4561 24.38C63.7561 30.268 69.0001 32.936 70.3801 33.672C74.0601 35.512 78.844 34.776 79.764 32.752C79.948 32.384 80.0401 32.016 80.132 31.556C79.948 31.372 79.8561 31.188 79.6721 31.096Z" fill="#CFE1FF"/>
<g id="Group_22">
<g id="Group_23">
<g id="Group_24">
<path id="Vector_9" d="M61.4559 24.288C63.5719 27.784 66.2399 30.728 69.8279 32.568C71.6679 33.672 73.8759 34.132 75.9919 33.948C76.8199 33.856 77.6479 33.672 78.3839 33.304C78.9359 33.028 79.4879 32.476 79.3959 31.832C79.1199 31.188 78.2919 30.544 77.8319 29.9C77.1879 29.164 76.7279 28.244 76.4519 27.324C75.9919 25.576 75.6239 23.828 74.8879 22.264C73.7839 19.688 71.9439 18.308 69.1839 18.584C69.0919 18.584 68.9999 18.584 68.8159 18.492C67.8959 18.032 66.8839 17.756 65.8719 17.756C63.8479 17.664 61.8239 18.584 60.5359 20.24C59.8919 21.068 59.4319 22.08 58.9719 23C58.8799 23.276 58.5119 23.46 58.2359 23.368C57.9599 23.276 57.7759 22.908 57.8679 22.632C58.3279 21.528 58.7879 20.516 59.5239 19.596C60.2599 18.676 61.2719 17.848 62.3759 17.388C64.5839 16.376 67.2519 16.468 69.3679 17.572L68.9999 17.48C72.3119 17.204 74.7039 18.86 75.9919 21.896C76.7279 23.552 77.1879 25.392 77.6479 27.14C77.9239 28.428 78.7519 29.348 79.5799 30.268C79.9479 30.636 80.3159 31.004 80.4999 31.556C80.8679 32.752 79.9479 33.948 78.9359 34.408C78.0159 34.868 77.0959 35.144 76.0839 35.236C73.6919 35.512 71.2999 34.868 69.1839 33.672C65.6879 31.648 62.3759 28.428 61.4559 24.288Z" fill="black"/>
</g>
</g>
</g>
<g id="Group_25">
<g id="Group_26">
<g id="Group_27">
<path id="Vector_10" d="M35.8799 52.44L30.7279 54.74C27.1399 51.98 24.6559 48.484 23.0919 44.712C15.7319 27.232 27.1399 2.57596 30.3599 1.74796C33.7639 0.827956 36.8919 17.756 37.7199 32.384C38.2719 41.86 37.8119 50.324 35.8799 52.44Z" fill="white"/>
</g>
</g>
</g>
<path id="Vector_11" d="M35.88 52.44L30.728 54.74C27.14 51.98 24.656 48.484 23.092 44.712C24.196 44.896 25.116 44.252 24.932 41.216C24.656 37.352 32.568 37.904 32.568 37.904C32.568 37.904 36.892 42.78 37.72 32.292C38.272 41.86 37.812 50.324 35.88 52.44Z" fill="#CFE1FF"/>
<g id="Group_28">
<g id="Group_29">
<g id="Group_30">
<path id="Vector_12" d="M30.7279 55.384C30.6359 55.384 30.4519 55.3839 30.3599 55.292C18.1239 45.724 19.4119 29.624 21.1599 20.884C23.2759 10.764 27.7839 1.83995 30.1759 1.19595C31.0959 0.919953 32.0159 1.47195 32.7519 2.85195C35.3279 7.08395 37.2599 18.952 37.9959 28.7959C38.3639 33.58 39.3759 49.312 36.2479 52.808C36.0639 53.084 35.6039 53.084 35.4199 52.808C35.1439 52.624 35.1439 52.164 35.4199 51.98C37.2599 49.956 37.8119 40.664 36.8919 28.888C35.9719 17.388 33.8559 6.89995 31.7399 3.40395C31.5559 3.03595 30.9119 2.20795 30.4519 2.29995C29.1639 2.75995 24.5639 10.396 22.3559 21.16C20.6079 29.624 19.4119 45.264 31.0959 54.372C31.3719 54.556 31.3719 54.924 31.1879 55.2C31.0959 55.292 30.9119 55.384 30.7279 55.384Z" fill="black"/>
</g>
</g>
</g>
<g id="Group_31">
<g id="Group_32">
<g id="Group_33">
<path id="Vector_13" d="M34.6841 51.428L31.4641 51.796C28.8881 49.772 27.1401 47.196 25.9441 44.344C20.7921 31.74 26.8641 12.788 29.4401 9.20004C29.6241 8.83204 29.9001 8.64804 29.9921 8.64804C32.6601 7.63604 31.1881 45.356 34.6841 51.428Z" fill="#FF8080"/>
</g>
</g>
</g>
<g id="Group_34">
<g id="Group_35">
<g id="Group_36">
<path id="Vector_14" d="M34.6841 51.428L31.4641 51.796C28.8881 49.772 27.1401 47.196 25.9441 44.344C26.8641 44.712 27.8761 44.988 28.7041 44.804C30.4521 44.344 30.4521 42.504 30.1761 41.032C29.3481 36.8 28.4281 31.188 28.7041 25.392C28.9801 19.228 30.2681 12.052 29.4401 9.20004C29.6241 8.83204 29.9001 8.64804 29.9921 8.64804C32.6601 7.63604 31.1881 45.356 34.6841 51.428Z" fill="#FF5C64"/>
</g>
</g>
</g>
<g id="Group_37">
<g id="Group_38">
<g id="Group_39">
<path id="Vector_15" d="M31.28 52.44L31.096 52.256C22.08 45.356 22.816 31.648 24.012 24.104C25.208 16.744 28.06 8.55603 29.716 8.00403C29.992 7.91203 30.268 7.91203 30.544 8.09603C31.74 8.92403 32.108 13.984 32.568 26.312C33.028 36.524 33.488 48.116 35.144 51.152L35.604 51.98L31.28 52.44ZM29.992 9.38403C29.532 9.93603 28.428 11.96 27.232 15.916C26.404 18.584 24.932 23.92 24.564 30.084C24.196 36.892 25.116 46.092 31.648 51.244L33.856 51.06C32.2 46.92 31.832 36.524 31.372 26.404C31.188 21.988 31.004 17.848 30.728 14.72C30.452 11.04 30.176 9.75203 29.992 9.38403Z" fill="black"/>
</g>
</g>
</g>
<g id="Group_40">
<g id="Group_41">
<g id="Group_42">
<path id="Vector_16" d="M48.3919 88.596C57.0399 88.136 66.0559 85.928 68.8159 79.948C70.8399 75.716 68.5399 71.484 68.5399 71.484C68.4479 71.208 69.5519 53.728 56.0279 47.564C52.2559 45.816 48.6679 45.356 45.0799 45.356C41.5839 45.356 37.9959 45.816 34.1319 47.564C20.6079 53.728 21.6199 71.208 21.6199 71.484C21.6199 71.484 19.3199 75.716 21.3439 79.948C24.1959 85.928 33.2119 88.136 41.7679 88.596H48.3919Z" fill="white"/>
</g>
</g>
</g>
<path id="Vector_17" d="M68.0801 81.328C64.5841 86.296 56.3961 88.228 48.3921 88.596H41.8601C34.2241 88.228 26.3121 86.48 22.6321 81.88C26.9561 85.652 36.7081 86.296 45.0801 86.296C53.4521 86.296 63.9401 85.468 68.0801 81.328Z" fill="#CFE1FF"/>
<g id="Group_43">
<g id="Group_44">
<g id="Group_45">
<path id="Vector_18" d="M48.3919 88.596C55.0159 87.032 63.4799 86.756 67.7119 80.684C69.3679 78.108 69.2759 74.98 68.1719 72.22C68.1719 72.128 68.0799 71.944 67.9879 71.944C67.8959 71.852 67.8959 71.668 67.8959 71.576V71.668C67.8959 71.484 67.8959 71.392 67.8959 71.208C67.8959 65.688 66.7919 59.984 63.7559 55.2C58.7879 47.288 49.0359 44.988 40.2959 46.368C33.6719 47.472 28.2439 51.152 25.2079 57.224C23.0919 61.548 22.1719 66.332 22.2639 71.116V71.3V71.392C22.2639 71.484 22.2639 71.484 22.2639 71.576V71.484C22.2639 71.668 22.1719 71.76 22.0799 71.944C21.1599 73.968 20.8839 76.36 21.5279 78.568C22.7239 82.432 26.5879 84.64 30.2679 85.928C32.7519 86.848 35.3279 87.308 37.9039 87.768C39.1919 88.044 40.4799 88.228 41.8599 88.504C40.4799 88.688 39.1919 88.688 37.8119 88.596C31.7399 88.228 23.5519 86.02 20.7919 80.132C19.5039 77.28 19.7799 73.968 21.0679 71.208V71.116C21.0679 71.208 21.0679 71.208 21.0679 71.3V71.208C21.0679 71.208 21.0679 71.208 21.0679 71.3V71.208V71.024C21.0679 60.812 25.0239 50.14 35.1439 46.368C41.3079 43.976 48.9439 43.976 55.1079 46.368C59.5239 48.024 63.2959 51.336 65.5959 55.476C68.2639 60.26 69.3679 65.78 69.2759 71.208V71.3C69.2759 71.3 69.2759 71.3 69.2759 71.208V71.3C69.2759 71.208 69.2759 71.208 69.2759 71.116C69.9199 72.404 70.1959 73.784 70.3799 75.164C70.8399 79.764 68.0799 83.352 64.2159 85.468C59.4319 88.044 53.7279 89.148 48.3919 88.596Z" fill="black"/>
</g>
</g>
</g>
<g id="Group_46">
<g id="Group_47">
<g id="Group_48">
<g id="Group_49">
<path id="Vector_19" d="M54.648 47.84C53.82 46 57.96 46 57.592 44.344C57.316 43.148 52.256 41.124 48.76 44.62C48.76 44.62 48.668 43.608 48.76 42.32C48.852 40.756 48.668 39.468 48.024 39.376C46.644 39.008 44.528 41.86 40.112 44.712C38.364 45.816 33.58 47.656 31.74 49.036" fill="white"/>
</g>
</g>
</g>
<g id="Group_50">
<g id="Group_51">
<g id="Group_52">
<path id="Vector_20" d="M54.372 47.932C53.82 47.104 54.372 46.276 55.108 45.816C55.476 45.448 57.132 44.896 56.948 44.436C56.672 43.976 55.936 43.7 55.476 43.516C54.372 43.148 53.268 43.148 52.164 43.332C51.06 43.608 50.048 44.16 49.22 44.988C48.852 45.356 48.208 45.08 48.208 44.62C48.116 43.792 48.116 43.056 48.208 42.228C48.208 41.584 48.208 40.756 48.024 40.204C48.024 40.112 47.932 39.928 47.84 39.928C47.564 39.928 47.288 40.02 47.012 40.204C46.368 40.572 45.816 41.124 45.264 41.584C44.068 42.596 42.872 43.516 41.584 44.436C39.468 46 36.984 46.828 34.684 48.024C33.764 48.484 32.844 48.944 32.016 49.496C31.372 49.956 30.728 48.944 31.372 48.484C34.224 46.644 37.444 45.724 40.296 43.884C41.768 42.872 43.148 41.768 44.528 40.664C45.356 40.02 46.184 39.192 47.288 38.824C49.772 38.18 49.496 41.584 49.404 43.056C49.404 43.516 49.404 44.068 49.496 44.528L48.484 44.16C49.864 42.688 51.98 41.768 54.004 41.952C55.384 42.044 56.856 42.412 57.868 43.424C58.42 43.976 58.512 44.896 57.96 45.54C57.592 46 57.04 46.184 56.58 46.46C56.304 46.552 56.028 46.736 55.752 46.828C55.384 47.012 55.2 47.104 55.016 47.38C55.016 47.472 55.016 47.656 55.016 47.748C54.924 48.024 54.556 48.208 54.372 47.932Z" fill="black"/>
</g>
</g>
</g>
</g>
<g id="Group_53">
<g id="Group_54">
<g id="Group_55">
<g id="Group_56">
<path id="Vector_21" d="M33.948 73.6C36.641 73.6 38.824 71.2934 38.824 68.448C38.824 65.6026 36.641 63.296 33.948 63.296C31.2551 63.296 29.072 65.6026 29.072 68.448C29.072 71.2934 31.2551 73.6 33.948 73.6Z" fill="black"/>
</g>
</g>
</g>
<path id="Vector_22" d="M34.8807 72.7655C36.9163 72.3222 38.1456 70.031 37.6266 67.648C37.1076 65.265 35.0368 63.6925 33.0013 64.1358C30.9658 64.5791 29.7364 66.8703 30.2554 69.2534C30.7744 71.6364 32.8452 73.2088 34.8807 72.7655Z" fill="white"/>
<path id="Vector_23" d="M35.3416 71.4012C36.9799 71.0443 37.975 69.2257 37.5641 67.3392C37.1532 65.4526 35.492 64.2125 33.8537 64.5693C32.2153 64.9261 31.2203 66.7447 31.6312 68.6313C32.042 70.5178 33.7032 71.758 35.3416 71.4012Z" fill="#78AFFF"/>
<path id="Vector_24" d="M35.2448 70.3255C36.4363 70.066 37.1568 68.7287 36.854 67.3386C36.5513 65.9485 35.3399 65.032 34.1484 65.2915C32.9569 65.551 32.2364 66.8883 32.5391 68.2784C32.8419 69.6685 34.0532 70.585 35.2448 70.3255Z" fill="black"/>
<path id="Vector_25" d="M33.304 68.0801C33.9137 68.0801 34.408 67.5858 34.408 66.9761C34.408 66.3664 33.9137 65.8721 33.304 65.8721C32.6942 65.8721 32.2 66.3664 32.2 66.9761C32.2 67.5858 32.6942 68.0801 33.304 68.0801Z" fill="white"/>
<path id="Vector_26" d="M36.9699 69.5193C37.0163 69.3215 36.7733 69.0951 36.4271 69.0138C36.0809 68.9325 35.7625 69.0269 35.716 69.2248C35.6695 69.4226 35.9125 69.6489 36.2588 69.7303C36.605 69.8116 36.9234 69.7172 36.9699 69.5193Z" fill="white"/>
</g>
<g id="Group_57">
<g id="Group_58">
<g id="Group_59">
<g id="Group_60">
<path id="Vector_27" d="M56.304 73.6C58.9969 73.6 61.18 71.2934 61.18 68.448C61.18 65.6026 58.9969 63.296 56.304 63.296C53.611 63.296 51.428 65.6026 51.428 68.448C51.428 71.2934 53.611 73.6 56.304 73.6Z" fill="black"/>
</g>
</g>
</g>
<path id="Vector_28" d="M57.2367 72.7636C59.2722 72.3203 60.5016 70.0291 59.9826 67.646C59.4636 65.263 57.3928 63.6905 55.3573 64.1338C53.3217 64.5772 52.0924 66.8684 52.6114 69.2514C53.1304 71.6344 55.2012 73.2069 57.2367 72.7636Z" fill="white"/>
<path id="Vector_29" d="M57.6973 71.3994C59.3356 71.0426 60.3307 69.224 59.9198 67.3374C59.5089 65.4509 57.8477 64.2108 56.2094 64.5676C54.5711 64.9244 53.576 66.743 53.9869 68.6296C54.3977 70.5161 56.059 71.7563 57.6973 71.3994Z" fill="#78AFFF"/>
<path id="Vector_30" d="M57.6005 70.3237C58.792 70.0642 59.5125 68.7269 59.2097 67.3368C58.907 65.9467 57.6956 65.0302 56.5041 65.2897C55.3126 65.5492 54.5921 66.8864 54.8949 68.2765C55.1976 69.6666 56.4089 70.5832 57.6005 70.3237Z" fill="black"/>
<path id="Vector_31" d="M55.5679 68.0801C56.1776 68.0801 56.6719 67.5858 56.6719 66.9761C56.6719 66.3664 56.1776 65.8721 55.5679 65.8721C54.9581 65.8721 54.4639 66.3664 54.4639 66.9761C54.4639 67.5858 54.9581 68.0801 55.5679 68.0801Z" fill="white"/>
<path id="Vector_32" d="M59.3219 69.5142C59.3684 69.3163 59.1254 69.09 58.7791 69.0087C58.4329 68.9273 58.1145 69.0218 58.068 69.2196C58.0216 69.4175 58.2646 69.6438 58.6108 69.7252C58.9571 69.8065 59.2754 69.7121 59.3219 69.5142Z" fill="white"/>
</g>
<g id="Group_61">
<g id="Group_62">
<g id="Group_63">
<path id="Vector_33" d="M49.3119 77.004C48.3919 78.108 48.1159 79.212 47.7479 80.132C47.6559 80.316 47.5639 80.5 47.4719 80.684C46.7359 82.064 45.3559 82.064 45.0799 82.064C44.8039 82.064 43.5159 81.972 42.7799 80.684C42.6879 80.5 42.5959 80.316 42.5039 80.132C42.1359 79.212 41.8599 78.108 40.9399 77.004C42.1359 75.808 45.0799 76.36 45.0799 76.36C45.0799 76.36 48.1159 75.808 49.3119 77.004Z" fill="#512717"/>
</g>
</g>
</g>
<g id="Group_64">
<g id="Group_65">
<g id="Group_66">
<path id="Vector_34" d="M49.0361 77.5561C48.2081 78.5681 47.9321 79.6721 47.5641 80.5001C47.5641 80.5921 47.4721 80.6841 47.4721 80.7761C47.4721 80.8681 47.3801 80.8681 47.3801 80.9601C46.6441 82.2481 45.4481 82.2481 45.1721 82.2481C44.8961 82.2481 43.7001 82.1561 42.9641 80.9601C42.9641 80.8681 42.8721 80.8681 42.8721 80.7761C42.7801 80.6841 42.7801 80.5921 42.7801 80.5001C42.4121 79.6721 42.1361 78.6601 41.3081 77.5561C42.4121 76.4521 45.1721 76.9121 45.1721 76.9121C45.1721 76.9121 47.9321 76.4521 49.0361 77.5561Z" fill="black"/>
</g>
</g>
</g>
<g id="Group_67">
<g id="Group_68">
<g id="Group_69">
<path id="Vector_35" d="M47.4721 80.776C47.4721 80.868 47.3801 80.868 47.3801 80.96C46.6441 82.248 45.4481 82.248 45.1721 82.248C44.8961 82.248 43.7001 82.156 42.9641 80.96C42.9641 80.868 42.8721 80.868 42.8721 80.776C43.2401 80.408 43.7001 80.224 44.1601 80.224C44.5281 80.224 44.8041 80.316 45.0801 80.5C45.3561 80.316 45.6321 80.224 46.0001 80.224C46.6441 80.224 47.1041 80.408 47.4721 80.776Z" fill="#FF8080"/>
</g>
</g>
</g>
<g id="Group_70">
<g id="Group_71">
<g id="Group_72">
<path id="Vector_36" d="M46.0919 80.224C46.0919 80.224 45.4479 80.316 45.1719 80.868C45.1719 80.96 45.0799 80.96 45.0799 80.868C44.8959 80.224 44.1599 80.224 44.1599 80.224L44.5279 79.488L45.1719 79.672L45.8159 79.488L46.0919 80.224Z" fill="black"/>
</g>
</g>
</g>
<g id="Group_73">
<g id="Group_74">
<g id="Group_75">
<path id="Vector_37" d="M45.172 82.708C43.976 82.616 43.056 82.1559 42.596 81.1439C42.412 80.7759 42.228 80.408 42.136 80.04C41.86 79.304 41.584 78.568 40.94 77.832C40.756 77.648 40.848 77.372 40.94 77.188C42.136 75.992 44.62 76.36 45.172 76.452C45.632 76.36 48.208 75.992 49.404 77.188C49.588 77.372 49.588 77.648 49.404 77.832C48.76 78.568 48.484 79.304 48.208 80.04C48.024 80.408 47.932 80.8679 47.748 81.1439C46.92 82.6159 45.448 82.708 45.172 82.708ZM41.952 77.648C42.504 78.384 42.78 79.1199 42.964 79.7639C43.056 80.1319 43.24 80.5 43.424 80.776C43.792 81.42 44.436 81.788 45.172 81.88C45.172 81.88 46.368 81.88 46.92 80.776C47.104 80.5 47.196 80.1319 47.38 79.7639C47.656 79.1199 47.84 78.384 48.392 77.648C47.472 77.096 45.816 77.28 45.264 77.372C45.172 77.372 45.172 77.372 45.08 77.372C44.436 77.28 42.872 77.096 41.952 77.648Z" fill="black"/>
</g>
</g>
</g>
<g id="Group_76">
<g id="Group_77">
<g id="Group_78">
<path id="Vector_38" d="M50.232 75.8081C49.956 76.1761 49.496 77.4641 48.484 78.0161C47.288 78.6601 46.092 78.1081 45.448 77.3721C45.172 77.0041 45.08 76.5441 45.08 76.2681C45.08 76.5441 44.988 77.0041 44.712 77.3721C44.16 78.1081 42.872 78.6601 41.676 78.0161C40.664 77.4641 40.204 76.1761 39.928 75.8081C39.928 75.8081 41.584 72.4041 44.988 72.4041C48.576 72.4041 50.232 75.8081 50.232 75.8081Z" fill="white"/>
</g>
</g>
</g>
<g id="Group_79">
<g id="Group_80">
<g id="Group_81">
<path id="Vector_39" d="M50.2321 75.808C50.0481 76.544 49.8641 77.188 49.4041 77.832C48.6681 78.844 47.1041 79.12 46.0001 78.476C44.8961 77.924 44.4361 77.004 44.5281 75.808V75.256C44.5281 74.428 45.8161 74.428 45.8161 75.256C45.8161 75.532 45.8161 75.9 45.8161 76.176C45.8161 77.648 44.5281 78.752 43.1481 78.752C41.8601 78.844 40.7561 77.924 40.3881 76.82C40.2961 76.452 40.2041 76.176 40.1121 75.808C40.3881 75.992 40.5721 76.36 40.8481 76.544C41.5841 77.464 42.6881 78.108 43.7921 77.464C44.3441 77.188 44.6201 76.728 44.5281 76.084C44.5281 75.9 44.5281 75.44 44.5281 75.348H45.8161C45.8161 75.624 45.8161 75.992 45.8161 76.268C45.8161 77.096 46.5521 77.648 47.2881 77.74C47.8401 77.832 48.3001 77.648 48.7601 77.28C49.3121 76.82 49.6801 76.268 50.2321 75.808Z" fill="black"/>
</g>
</g>
</g>
<g id="Group_82">
<path id="Vector_40" d="M49.1281 72.68C49.1281 73.6 47.9321 74.336 46.9201 74.888C45.8161 75.44 44.5281 75.44 43.4241 74.888C42.3201 74.336 41.2161 73.6 41.2161 72.68C41.1241 69.92 49.1281 69.92 49.1281 72.68Z" fill="black"/>
<path id="Vector_41" d="M46.7361 72.1279C46.7361 72.4039 46.2761 72.5879 45.8161 72.7719C45.3561 72.9559 44.8961 72.9559 44.4361 72.7719C43.9761 72.5879 43.5161 72.4039 43.5161 72.1279C43.5161 71.3919 46.7361 71.3919 46.7361 72.1279Z" fill="#9BAEC6"/>
</g>
<g id="Group_83">
<g id="Group_84">
<g id="Group_85">
<path id="Vector_42" d="M27.6921 80.2239C29.8769 80.2239 31.6481 78.9059 31.6481 77.2799C31.6481 75.654 29.8769 74.3359 27.6921 74.3359C25.5072 74.3359 23.7361 75.654 23.7361 77.2799C23.7361 78.9059 25.5072 80.2239 27.6921 80.2239Z" fill="#FFABAB"/>
</g>
</g>
</g>
<g id="Group_86">
<g id="Group_87">
<g id="Group_88">
<path id="Vector_43" d="M62.7441 80.2239C64.9289 80.2239 66.7001 78.9059 66.7001 77.2799C66.7001 75.654 64.9289 74.3359 62.7441 74.3359C60.5592 74.3359 58.7881 75.654 58.7881 77.2799C58.7881 78.9059 60.5592 80.2239 62.7441 80.2239Z" fill="#FFABAB"/>
</g>
</g>
</g>
<g id="Group_89">
<g id="Group_90">
<g id="Group_91">
<path id="Vector_44" d="M67.3441 74.2441C69.1841 71.5761 73.2321 70.5641 76.0841 72.3121C72.8641 71.5761 70.2881 72.5881 67.6201 74.4281C67.4361 74.5201 67.2521 74.4281 67.3441 74.2441Z" fill="black"/>
</g>
</g>
</g>
<g id="Group_92">
<g id="Group_93">
<g id="Group_94">
<path id="Vector_45" d="M67.896 77.188C70.288 75.532 74.1519 75.992 75.8079 78.476C74.0599 77.28 72.0359 76.912 70.0119 77.188C69.3679 77.28 68.6319 77.372 67.9879 77.464C67.8039 77.556 67.712 77.28 67.896 77.188Z" fill="black"/>
</g>
</g>
</g>
<g id="Group_95">
<g id="Group_96">
<g id="Group_97">
<path id="Vector_46" d="M22.724 74.428C20.056 72.68 17.48 71.576 14.26 72.312C16.744 70.748 20.148 71.3 22.172 73.324C22.448 73.6 22.724 73.876 23 74.244C23 74.336 23 74.428 22.908 74.428C22.816 74.52 22.724 74.52 22.724 74.428Z" fill="black"/>
</g>
</g>
</g>
<g id="Group_98">
<g id="Group_99">
<g id="Group_100">
<path id="Vector_47" d="M22.2641 77.464C19.5041 77.004 16.9281 76.82 14.4441 78.476C15.6401 76.636 18.2161 75.9 20.3321 76.36C21.0681 76.544 21.7121 76.728 22.3561 77.188C22.5401 77.28 22.4481 77.556 22.2641 77.464Z" fill="black"/>
</g>
</g>
</g>
<path id="Vector_48" d="M60.9041 59.064C57.9601 57.5 54.8321 58.604 51.7041 59.064L51.6121 58.972C52.8081 57.684 54.5561 57.224 56.3041 57.408C57.9601 57.5 59.6161 57.96 60.9041 59.064Z" fill="black"/>
<path id="Vector_49" d="M29.3479 59.064C32.2919 57.5 35.4199 58.604 38.5479 59.064L38.6399 58.972C37.4439 57.684 35.6959 57.224 33.9479 57.408C32.2919 57.5 30.6359 57.96 29.3479 59.064Z" fill="black"/>
</g>
</g>
</g>
</g>
<defs>
<clipPath id="clip0_537_1152">
<rect width="92" height="92" fill="white"/>
</clipPath>
</defs>
</svg>
