<svg width="26" height="22" viewBox="0 0 26 22" fill="none" xmlns="http://www.w3.org/2000/svg">
<g id="Layer_1-2">
<path id="Vector" d="M5.19769 11.0008C5.19769 8.21314 5.19769 5.42552 5.19769 2.63713C5.19769 1.02597 6.28246 0.000763942 7.98698 0C11.3292 0 14.6707 0 18.013 0C19.7183 0 20.8031 1.02521 20.8031 2.63636C20.8031 8.21161 20.8031 13.7876 20.8031 19.3629C20.8031 20.974 19.7183 22 18.0138 22C14.6715 22 11.3301 22 7.9878 22C6.28328 22 5.19851 20.974 5.19769 19.3629C5.19769 16.5752 5.19769 13.7876 5.19769 10.9992V11.0008Z" fill="#D6D6D6"/>
<path id="Vector_2" d="M2.57049 19.5249C1.34483 19.6181 0.104514 18.5592 0.0133017 17.3598C0.00352903 17.2361 0.00108586 17.1116 0.00108586 16.9878C0.00108586 12.9962 -0.00135732 9.00537 0.00108586 5.01377C0.00190025 3.71202 0.816292 2.73875 2.09977 2.492C2.24555 2.46374 2.39784 2.46297 2.56968 2.44769V19.5241L2.57049 19.5249Z" fill="#D6D6D6"/>
<path id="Vector_3" d="M23.4297 2.47673C24.6594 2.38582 25.8949 3.44082 25.9861 4.64174C25.9958 4.7655 25.9991 4.89002 25.9991 5.01378C25.9991 9.00537 26.0015 12.9962 25.9991 16.9878C25.9983 18.2896 25.1855 19.2598 23.8996 19.508C23.7538 19.5363 23.6015 19.5378 23.4305 19.5531V2.47673H23.4297Z" fill="#D6D6D6"/>
</g>
</svg>
