<svg width="24" height="24" viewBox="0 0 24 24" fill="none" xmlns="http://www.w3.org/2000/svg">
<path d="M12 0C9.62663 0 7.30655 0.703788 5.33316 2.02236C3.35977 3.34094 1.8217 5.21508 0.913451 7.4078C0.00519943 9.60051 -0.232441 12.0133 0.230582 14.3411C0.693605 16.6689 1.83649 18.807 3.51472 20.4853C5.19295 22.1635 7.33115 23.3064 9.65892 23.7694C11.9867 24.2324 14.3995 23.9948 16.5922 23.0865C18.7849 22.1783 20.6591 20.6402 21.9776 18.6668C23.2962 16.6935 24 14.3734 24 12C24 8.8174 22.7357 5.76515 20.4853 3.51472C18.2348 1.26428 15.1826 0 12 0V0ZM14.5 18.6C13.8827 18.844 13.39 19.0297 13.022 19.157C12.6084 19.2921 12.1751 19.357 11.74 19.349C11.1098 19.3881 10.4875 19.1926 9.99301 18.8C9.79257 18.6293 9.63279 18.4161 9.52535 18.1758C9.41791 17.9354 9.36552 17.6742 9.37201 17.411C9.37248 17.1872 9.38785 16.9637 9.41801 16.742C9.44901 16.514 9.49901 16.258 9.56701 15.971L10.34 13.24C10.408 12.978 10.467 12.729 10.514 12.497C10.558 12.2854 10.5812 12.0701 10.583 11.854C10.5968 11.7245 10.5849 11.5935 10.5481 11.4686C10.5112 11.3436 10.45 11.2272 10.368 11.126C10.1254 10.9627 9.83239 10.8918 9.54201 10.926C9.3337 10.9266 9.12657 10.9573 8.92701 11.017C8.71901 11.081 8.53801 11.139 8.39001 11.196L8.59001 10.355C9.09601 10.149 9.58034 9.97266 10.043 9.826C10.4656 9.68479 10.9075 9.61023 11.353 9.605C11.9729 9.56519 12.5854 9.75691 13.072 10.143C13.2689 10.3178 13.4247 10.534 13.5284 10.776C13.6322 11.018 13.6812 11.2799 13.672 11.543C13.672 11.6617 13.658 11.8707 13.63 12.17C13.6063 12.4491 13.5547 12.7252 13.476 12.994L12.707 15.717C12.644 15.935 12.588 16.185 12.537 16.465C12.4952 16.6746 12.4704 16.8873 12.463 17.101C12.4464 17.2346 12.4596 17.3703 12.5016 17.4982C12.5436 17.6261 12.6134 17.7432 12.706 17.841C12.9568 17.9972 13.2517 18.0674 13.546 18.041C13.7615 18.0359 13.9754 18.0023 14.182 17.941C14.3574 17.8963 14.5292 17.8384 14.696 17.768L14.5 18.6ZM14.361 7.547C14.0102 7.87804 13.5432 8.05766 13.061 8.047C12.5792 8.05552 12.1129 7.8762 11.761 7.547C11.5894 7.39545 11.4522 7.20883 11.3589 6.99974C11.2656 6.79065 11.2182 6.56397 11.22 6.335C11.2186 6.10565 11.2661 5.87863 11.3594 5.6691C11.4527 5.45958 11.5896 5.27238 11.761 5.12C12.1121 4.78952 12.5789 4.60999 13.061 4.62C13.5435 4.60781 14.0111 4.78765 14.361 5.12C14.5305 5.27346 14.666 5.46073 14.7587 5.66974C14.8514 5.87874 14.8993 6.10485 14.8993 6.3335C14.8993 6.56214 14.8514 6.78826 14.7587 6.99726C14.666 7.20627 14.5305 7.39354 14.361 7.547Z" fill="white"/>
</svg>
