<svg xmlns="http://www.w3.org/2000/svg" width="36" height="36" viewBox="0 0 36 36">
  <g id="phone" transform="translate(-1231 -1454)">
    <rect id="Rectangle_201" data-name="Rectangle 201" width="36" height="36" rx="3" transform="translate(1231 1454)" fill="#fff"/>
    <g id="smartphone" transform="translate(1127.308 1457)">
      <g id="Group_108" data-name="Group 108" transform="translate(113.692)">
        <path id="Path_17" data-name="Path 17" d="M127.014,0H116.879a3.185,3.185,0,0,0-3.187,3.127V26.876A3.155,3.155,0,0,0,116.848,30L127,29.989a3.135,3.135,0,0,0,3.132-3.124l.015-23.739A3.128,3.128,0,0,0,127.014,0Zm-6.532,1.875h2.94a.469.469,0,1,1,0,.937h-2.94a.469.469,0,1,1,0-.937Zm-1.767.149a.485.485,0,0,1,.663,0,.47.47,0,0,1-.33.8.48.48,0,0,1-.333-.138.473.473,0,0,1,0-.663Zm3.142,27.047a1.4,1.4,0,1,1,1.4-1.4A1.4,1.4,0,0,1,121.858,29.071Zm6.834-3.759H115.333V4.453h13.359Z" transform="translate(-113.692)"/>
      </g>
    </g>
  </g>
</svg>
