<svg xmlns="http://www.w3.org/2000/svg" xmlns:xlink="http://www.w3.org/1999/xlink" width="30" height="23.99" viewBox="0 0 30 23.99">
  <defs>
    <linearGradient id="linear-gradient" x1="0.461" y1="-3.324" x2="0.469" y2="1" gradientUnits="objectBoundingBox">
      <stop offset="0" stop-color="#ffd86e"/>
      <stop offset="1" stop-color="#f29512"/>
    </linearGradient>
    <linearGradient id="linear-gradient-2" x1="0.539" y1="-3.324" x2="0.531" y2="1" xlink:href="#linear-gradient"/>
    <linearGradient id="linear-gradient-3" x1="0.5" y1="0" x2="0.5" y2="0.901" xlink:href="#linear-gradient"/>
    <linearGradient id="linear-gradient-4" x1="0.5" y1="0" x2="0.5" y2="1" xlink:href="#linear-gradient"/>
  </defs>
  <g id="vip" transform="translate(-1551 -1091)">
    <path id="Path_48374" data-name="Path 48374" d="M32.928,128.974a.325.325,0,0,1-.229.556H24.514c-.689,0-1.378-.015-2.066,0-.325.01-.468-.075-.46-.436q.034-1.4,0-2.793c-.01-.366.14-.434.465-.432,2.349.011,4.7,0,7.047,0a.621.621,0,0,1,.5.153C30.951,127,31.905,127.956,32.928,128.974Z" transform="translate(1532.585 985.459)" fill="url(#linear-gradient)"/>
    <path id="Path_48379" data-name="Path 48379" d="M22.083,128.974a.325.325,0,0,0,.229.556H30.5c.689,0,1.378-.015,2.066,0,.325.01.468-.075.46-.436q-.034-1.4,0-2.793c.01-.366-.14-.434-.465-.432-2.349.011-4.7,0-7.047,0a.621.621,0,0,0-.5.153C24.06,127,23.106,127.956,22.083,128.974Z" transform="translate(1544.585 985.459)" fill="url(#linear-gradient-2)"/>
    <path id="Path_48375" data-name="Path 48375" d="M29.664,5.482a.248.248,0,0,1,.258.045A.26.26,0,0,1,30,5.783q-1.552,6.132-3.095,12.252a.543.543,0,0,1-.633.5c-2.308-.024-4.618-.018-6.927,0a.971.971,0,0,1-.775-.323c-1.077-1.12-2.182-2.215-3.255-3.34-.041-.042-.078-.079-.114-.11a.3.3,0,0,0-.386,0c-.036.031-.073.068-.114.11-1.073,1.13-2.177,2.22-3.255,3.34a.971.971,0,0,1-.775.323c-2.308-.013-4.618-.019-6.927,0a.543.543,0,0,1-.633-.5Q1.572,11.9.015,5.779A.26.26,0,0,1,.1,5.527a.248.248,0,0,1,.256-.045h0c2.174.783,4.338,1.581,6.512,2.348.437.161.566.294.293.731a2.557,2.557,0,0,0-.347,2.085A2.431,2.431,0,0,0,9.342,12.4a2.036,2.036,0,0,0,2.245-1.555,4.852,4.852,0,0,0,.56-1.993c-.092-.623-.853-1.052-1.356-1.522-.386-.363-.373-.612-.087-1.036,1.346-2.014,2.657-4.04,3.981-6.065l.06-.092a.313.313,0,0,1,.525,0l.06.092c1.324,2.025,2.634,4.052,3.979,6.059.286.424.3.673-.087,1.036-.5.47-1.266.889-1.356,1.522a4.836,4.836,0,0,0,.56,1.993,2.026,2.026,0,0,0,2.245,1.555A2.419,2.419,0,0,0,23.2,10.639a2.557,2.557,0,0,0-.354-2.077c-.274-.437-.144-.578.293-.731,2.18-.768,4.348-1.567,6.517-2.349Z" transform="translate(1550.991 1091.004)" fill="url(#linear-gradient-3)"/>
    <path id="Path_48377" data-name="Path 48377" d="M85.4,109.273c-.631.6-1.244,1.216-1.847,1.842l-.026.026a.293.293,0,0,1-.416,0l-.026-.026c-.6-.626-1.216-1.244-1.847-1.842-.226-.216-.176-.338.021-.528.626-.6,1.234-1.224,1.848-1.84h0a.3.3,0,0,1,.419,0h0c.614.616,1.222,1.237,1.848,1.84C85.579,108.935,85.629,109.057,85.4,109.273Z" transform="translate(1482.677 1001.409)" fill="url(#linear-gradient-4)"/>
  </g>
</svg>
