<svg xmlns="http://www.w3.org/2000/svg" width="44" height="44" viewBox="0 0 44 44">
  <g id="phone" transform="translate(19059 -647)">
    <rect id="Rectangle_2584" data-name="Rectangle 2584" width="44" height="44" rx="2" transform="translate(-19059 647)" fill="#fff"/>
    <g id="Group_5248" data-name="Group 5248" transform="translate(-19045 655)">
      <path id="Path_46582" data-name="Path 46582" d="M126.646,0h-9.855a3.039,3.039,0,0,0-3.1,2.919V25.084A3.009,3.009,0,0,0,116.761,28l9.871-.01a2.989,2.989,0,0,0,3.046-2.916l.014-22.156A2.983,2.983,0,0,0,126.646,0Zm-6.351,1.75h2.859a.438.438,0,1,1,0,.875h-2.859a.438.438,0,1,1,0-.875Zm-1.718.139a.487.487,0,0,1,.645,0,.423.423,0,0,1,0,.619.47.47,0,0,1-.321.129.477.477,0,0,1-.324-.129.429.429,0,0,1,0-.619Zm3.056,25.244A1.31,1.31,0,1,1,123,25.824,1.339,1.339,0,0,1,121.632,27.133Zm6.645-3.508h-12.99V4.156h12.99Z" transform="translate(-113.692)" fill="#101729"/>
    </g>
  </g>
</svg>
