<svg width="26" height="26" viewBox="0 0 26 26" fill="none" xmlns="http://www.w3.org/2000/svg">
<path id="Subtract" fill-rule="evenodd" clip-rule="evenodd" d="M13 26C20.1797 26 26 20.1797 26 13C26 5.8203 20.1797 0 13 0C5.8203 0 0 5.8203 0 13C0 20.1797 5.8203 26 13 26ZM14.9787 4H11L11.7021 15.6602H14.2979L14.9787 4ZM11.5532 18.3204C11.1844 18.7182 11 19.232 11 19.8619C11 20.4917 11.1844 21.0055 11.5532 21.4033C11.9362 21.8011 12.4184 22 13 22C13.5816 22 14.0567 21.8011 14.4255 21.4033C14.8085 21.0055 15 20.4917 15 19.8619C15 19.232 14.8085 18.7182 14.4255 18.3204C14.0567 17.9227 13.5816 17.7238 13 17.7238C12.4184 17.7238 11.9362 17.9227 11.5532 18.3204Z" fill="#E15341"/>
</svg>
